<mxfile host="app.diagrams.net" modified="2022-06-22T17:35:49.866Z" agent="5.0 (Windows NT 10.0; Win64; x64) AppleWebKit/537.36 (KHTML, like Gecko) Chrome/102.0.0.0 Safari/537.36" etag="YNSHAV6gyR7KyZbCNgQ-" version="17.4.0" type="github" pages="2">
  <diagram id="C5RBs43oDa-KdzZeNtuy" name="Page-1">
    <mxGraphModel dx="1422" dy="762" grid="1" gridSize="10" guides="1" tooltips="1" connect="1" arrows="1" fold="1" page="1" pageScale="1" pageWidth="850" pageHeight="1100" math="0" shadow="0">
      <root>
        <mxCell id="WIyWlLk6GJQsqaUBKTNV-0" />
        <mxCell id="WIyWlLk6GJQsqaUBKTNV-1" parent="WIyWlLk6GJQsqaUBKTNV-0" />
        <mxCell id="WIyWlLk6GJQsqaUBKTNV-2" value="" style="rounded=0;html=1;jettySize=auto;orthogonalLoop=1;fontSize=11;endArrow=block;endFill=0;endSize=8;strokeWidth=1;shadow=0;labelBackgroundColor=none;edgeStyle=orthogonalEdgeStyle;entryX=0.5;entryY=0;entryDx=0;entryDy=0;" parent="WIyWlLk6GJQsqaUBKTNV-1" target="WIyWlLk6GJQsqaUBKTNV-6" edge="1">
          <mxGeometry relative="1" as="geometry">
            <mxPoint x="414" y="100" as="sourcePoint" />
          </mxGeometry>
        </mxCell>
        <mxCell id="WIyWlLk6GJQsqaUBKTNV-3" value="Sensor Read" style="rounded=1;whiteSpace=wrap;html=1;fontSize=12;glass=0;strokeWidth=1;shadow=0;" parent="WIyWlLk6GJQsqaUBKTNV-1" vertex="1">
          <mxGeometry x="354" y="10" width="120" height="30" as="geometry" />
        </mxCell>
        <mxCell id="WIyWlLk6GJQsqaUBKTNV-4" value="Yes" style="rounded=0;html=1;jettySize=auto;orthogonalLoop=1;fontSize=11;endArrow=block;endFill=0;endSize=8;strokeWidth=1;shadow=0;labelBackgroundColor=none;edgeStyle=orthogonalEdgeStyle;fontColor=none;noLabel=1;" parent="WIyWlLk6GJQsqaUBKTNV-1" source="WIyWlLk6GJQsqaUBKTNV-6" target="WIyWlLk6GJQsqaUBKTNV-10" edge="1">
          <mxGeometry y="20" relative="1" as="geometry">
            <mxPoint as="offset" />
          </mxGeometry>
        </mxCell>
        <mxCell id="WIyWlLk6GJQsqaUBKTNV-6" value="Recorded by PLC" style="rhombus;whiteSpace=wrap;html=1;shadow=0;fontFamily=Helvetica;fontSize=12;align=center;strokeWidth=1;spacing=6;spacingTop=-4;" parent="WIyWlLk6GJQsqaUBKTNV-1" vertex="1">
          <mxGeometry x="364" y="160" width="100" height="80" as="geometry" />
        </mxCell>
        <mxCell id="WIyWlLk6GJQsqaUBKTNV-8" value="No" style="rounded=0;jettySize=auto;orthogonalLoop=1;fontSize=11;endArrow=block;endFill=0;endSize=8;strokeWidth=1;shadow=0;labelBackgroundColor=none;edgeStyle=orthogonalEdgeStyle;fontColor=none;noLabel=1;" parent="WIyWlLk6GJQsqaUBKTNV-1" source="WIyWlLk6GJQsqaUBKTNV-10" target="WIyWlLk6GJQsqaUBKTNV-11" edge="1">
          <mxGeometry x="0.6667" y="130" relative="1" as="geometry">
            <mxPoint as="offset" />
            <Array as="points">
              <mxPoint x="414" y="400" />
              <mxPoint x="414" y="400" />
            </Array>
          </mxGeometry>
        </mxCell>
        <mxCell id="WIyWlLk6GJQsqaUBKTNV-10" value="PLC Communicates with GUI" style="rhombus;whiteSpace=wrap;html=1;shadow=0;fontFamily=Helvetica;fontSize=12;align=center;strokeWidth=1;spacing=6;spacingTop=-4;" parent="WIyWlLk6GJQsqaUBKTNV-1" vertex="1">
          <mxGeometry x="364" y="280" width="100" height="80" as="geometry" />
        </mxCell>
        <mxCell id="WIyWlLk6GJQsqaUBKTNV-11" value="Is GUI running?" style="rounded=1;whiteSpace=wrap;html=1;fontSize=12;glass=0;strokeWidth=1;shadow=0;" parent="WIyWlLk6GJQsqaUBKTNV-1" vertex="1">
          <mxGeometry x="360" y="420" width="114" height="40" as="geometry" />
        </mxCell>
        <mxCell id="rGY5C4zwXBl8T3owJKk9-0" value="Yes" style="endArrow=classic;html=1;rounded=0;fontColor=none;" edge="1" parent="WIyWlLk6GJQsqaUBKTNV-1">
          <mxGeometry width="50" height="50" relative="1" as="geometry">
            <mxPoint x="360" y="439.5" as="sourcePoint" />
            <mxPoint x="240" y="439.5" as="targetPoint" />
          </mxGeometry>
        </mxCell>
        <mxCell id="rGY5C4zwXBl8T3owJKk9-1" value="No" style="endArrow=classic;html=1;rounded=0;fontColor=default;" edge="1" parent="WIyWlLk6GJQsqaUBKTNV-1">
          <mxGeometry width="50" height="50" relative="1" as="geometry">
            <mxPoint x="474" y="439.5" as="sourcePoint" />
            <mxPoint x="604" y="440" as="targetPoint" />
          </mxGeometry>
        </mxCell>
        <mxCell id="rGY5C4zwXBl8T3owJKk9-2" value="Data is recorded to DB" style="rhombus;whiteSpace=wrap;html=1;fontColor=default;" vertex="1" parent="WIyWlLk6GJQsqaUBKTNV-1">
          <mxGeometry x="160" y="400" width="80" height="80" as="geometry" />
        </mxCell>
        <mxCell id="rGY5C4zwXBl8T3owJKk9-3" value="No Data Recorded" style="rhombus;whiteSpace=wrap;html=1;fillColor=#f8cecc;strokeColor=#b85450;" vertex="1" parent="WIyWlLk6GJQsqaUBKTNV-1">
          <mxGeometry x="610" y="400" width="80" height="80" as="geometry" />
        </mxCell>
        <mxCell id="rGY5C4zwXBl8T3owJKk9-6" value="Request is made for specific data retrieval" style="rounded=1;whiteSpace=wrap;html=1;fontColor=default;" vertex="1" parent="WIyWlLk6GJQsqaUBKTNV-1">
          <mxGeometry x="139.5" y="490" width="120" height="40" as="geometry" />
        </mxCell>
        <mxCell id="rGY5C4zwXBl8T3owJKk9-8" value="Jen crafts SQL Query for flexible use during testing" style="rounded=1;whiteSpace=wrap;html=1;fontColor=default;" vertex="1" parent="WIyWlLk6GJQsqaUBKTNV-1">
          <mxGeometry x="140" y="810" width="120" height="50" as="geometry" />
        </mxCell>
        <mxCell id="rGY5C4zwXBl8T3owJKk9-9" value="Person testing gives list of information needed to be retrieved from DB" style="rounded=1;whiteSpace=wrap;html=1;fontColor=default;" vertex="1" parent="WIyWlLk6GJQsqaUBKTNV-1">
          <mxGeometry x="140" y="700" width="120" height="60" as="geometry" />
        </mxCell>
        <mxCell id="rGY5C4zwXBl8T3owJKk9-12" value="Data recording verification" style="rounded=1;whiteSpace=wrap;html=1;fontColor=default;" vertex="1" parent="WIyWlLk6GJQsqaUBKTNV-1">
          <mxGeometry x="139.5" y="600" width="120" height="50" as="geometry" />
        </mxCell>
        <mxCell id="rGY5C4zwXBl8T3owJKk9-15" value="Check data coming in/DB save limit not near" style="ellipse;whiteSpace=wrap;html=1;aspect=fixed;fontColor=default;" vertex="1" parent="WIyWlLk6GJQsqaUBKTNV-1">
          <mxGeometry x="330" y="585" width="80" height="80" as="geometry" />
        </mxCell>
        <mxCell id="rGY5C4zwXBl8T3owJKk9-17" value="Begin Test Profile" style="rounded=1;whiteSpace=wrap;html=1;fontColor=default;" vertex="1" parent="WIyWlLk6GJQsqaUBKTNV-1">
          <mxGeometry x="139.5" y="890" width="120" height="60" as="geometry" />
        </mxCell>
        <mxCell id="rGY5C4zwXBl8T3owJKk9-24" value="Live data checks throughout test" style="rounded=1;whiteSpace=wrap;html=1;fontColor=default;" vertex="1" parent="WIyWlLk6GJQsqaUBKTNV-1">
          <mxGeometry x="140" y="990" width="120" height="60" as="geometry" />
        </mxCell>
        <mxCell id="rGY5C4zwXBl8T3owJKk9-25" value="Test Completion collect complete data file" style="rounded=1;whiteSpace=wrap;html=1;fontColor=default;" vertex="1" parent="WIyWlLk6GJQsqaUBKTNV-1">
          <mxGeometry x="139.5" y="1090" width="120" height="60" as="geometry" />
        </mxCell>
        <mxCell id="2Ox-Umq1YNuusPMfxb5k-0" value="Save data file as csv" style="rounded=1;whiteSpace=wrap;html=1;fontColor=default;" vertex="1" parent="WIyWlLk6GJQsqaUBKTNV-1">
          <mxGeometry x="140" y="1220" width="120" height="60" as="geometry" />
        </mxCell>
        <mxCell id="2Ox-Umq1YNuusPMfxb5k-1" value="Save file to thumb drive" style="rounded=1;whiteSpace=wrap;html=1;fontColor=default;" vertex="1" parent="WIyWlLk6GJQsqaUBKTNV-1">
          <mxGeometry x="140" y="1300" width="120" height="60" as="geometry" />
        </mxCell>
        <mxCell id="2Ox-Umq1YNuusPMfxb5k-2" value="Transfer file to specific test folder location" style="rounded=1;whiteSpace=wrap;html=1;fontColor=default;" vertex="1" parent="WIyWlLk6GJQsqaUBKTNV-1">
          <mxGeometry x="140" y="1370" width="120" height="60" as="geometry" />
        </mxCell>
        <mxCell id="2Ox-Umq1YNuusPMfxb5k-3" value="Run report program" style="rounded=1;whiteSpace=wrap;html=1;fontColor=default;" vertex="1" parent="WIyWlLk6GJQsqaUBKTNV-1">
          <mxGeometry x="139.5" y="1460" width="120" height="60" as="geometry" />
        </mxCell>
        <mxCell id="2Ox-Umq1YNuusPMfxb5k-4" value="Collect relevant test information. Start stop time, mag type/size etc" style="rounded=1;whiteSpace=wrap;html=1;fontColor=default;" vertex="1" parent="WIyWlLk6GJQsqaUBKTNV-1">
          <mxGeometry x="139.5" y="1160" width="120" height="60" as="geometry" />
        </mxCell>
        <mxCell id="2Ox-Umq1YNuusPMfxb5k-5" value="Enter relevant testing info to program" style="rounded=1;whiteSpace=wrap;html=1;fontColor=default;" vertex="1" parent="WIyWlLk6GJQsqaUBKTNV-1">
          <mxGeometry x="140" y="1530" width="120" height="60" as="geometry" />
        </mxCell>
        <mxCell id="2Ox-Umq1YNuusPMfxb5k-6" value="Auto Saves pdf to test folder location" style="rounded=1;whiteSpace=wrap;html=1;fontColor=default;" vertex="1" parent="WIyWlLk6GJQsqaUBKTNV-1">
          <mxGeometry x="140" y="1610" width="120" height="60" as="geometry" />
        </mxCell>
      </root>
    </mxGraphModel>
  </diagram>
  <diagram id="bCwPncfXTaj2IawUAc61" name="Page-2">
    <mxGraphModel dx="1422" dy="762" grid="1" gridSize="10" guides="1" tooltips="1" connect="1" arrows="1" fold="1" page="1" pageScale="1" pageWidth="850" pageHeight="1100" math="0" shadow="0">
      <root>
        <mxCell id="0" />
        <mxCell id="1" parent="0" />
      </root>
    </mxGraphModel>
  </diagram>
</mxfile>
